<?xml version="1.0" encoding="UTF-8" standalone="no"?>
<!-- Created with Inkscape (http://www.inkscape.org/) -->

<svg
   width="29.83547mm"
   height="52.825573mm"
   viewBox="0 0 29.83547 52.825573"
   version="1.1"
   id="svg1"
   xml:space="preserve"
   xmlns:inkscape="http://www.inkscape.org/namespaces/inkscape"
   xmlns:sodipodi="http://sodipodi.sourceforge.net/DTD/sodipodi-0.dtd"
   xmlns="http://www.w3.org/2000/svg"
   xmlns:svg="http://www.w3.org/2000/svg"><g
     inkscape:label="Camada 1"
     inkscape:groupmode="layer"
     id="layer1"
     transform="translate(-32.289471,-135.09913)">
     <path
       d="m 42.893118,206.83025 c 0,-2.30481 0.07056,-2.89277 0.3175,-2.64583 0.174625,0.17463 0.567532,0.3175 0.873125,0.3175 0.880519,0 1.190625,-0.53063 1.190625,-2.03729 0,-1.0476 -0.09689,-1.40229 -0.383048,-1.40229 -0.272767,0 -0.406072,0.38187 -0.463021,1.32639 -0.106595,1.76794 -0.588411,1.81176 -0.689112,0.0627 -0.05753,-0.99922 -0.187475,-1.38906 -0.463021,-1.38906 -0.332592,0 -0.383048,-5.08826 -0.383048,-38.62917 v -38.62917 h 2.38125 2.38125 v 27.11979 27.1198 h 15.742713 15.74271 v -27.1198 -27.11979 h 2.381255 2.38125 v 38.62917 c 0,34.16065 -0.0459,38.62917 -0.39688,38.62917 -0.31207,0 -0.39687,0.36747 -0.39687,1.71979 0,1.35231 0.0848,1.71979 0.39687,1.71979 0.32632,0 0.39688,0.47037 0.39688,2.64583 v 2.64584 h -3.566215 -3.5662 l 0.29644,-0.65062 c 0.23739,-0.52102 0.2087,-0.78455 -0.14406,-1.32292 -0.80908,-1.23481 -1.89003,-0.57163 -1.70143,1.04385 0.0722,0.61878 -4.6e-4,0.92969 -0.21738,0.92969 -0.43954,0 -0.69982,-0.90727 -0.51406,-1.79189 0.0834,-0.39691 0.04,-0.89551 -0.0964,-1.10801 -0.21216,-0.33057 -0.32759,-0.31429 -0.79953,0.11281 -0.37621,0.34046 -0.46546,0.58528 -0.28074,0.77 0.45532,0.45532 0.33581,2.01709 -0.15435,2.01709 -0.28228,0 -0.3702,-0.14328 -0.26159,-0.42631 0.1324,-0.34504 0.0369,-0.39452 -0.50086,-0.25954 -0.38396,0.0964 -0.66445,0.0529 -0.66445,-0.10286 0,-0.14829 0.29766,-0.26963 0.66146,-0.26963 0.73251,0 0.84829,-0.4371 0.31057,-1.17248 -0.79296,-1.08443 -2.15918,0.47219 -1.49829,1.70708 0.24507,0.45791 0.19599,0.52374 -0.39047,0.52374 -0.56592,0 -0.67077,-0.12164 -0.67077,-0.77814 0,-0.42797 0.11906,-0.85172 0.26459,-0.94165 0.49726,-0.30733 0.26512,-0.7937 -0.39707,-0.83191 -0.62042,-0.0358 -0.66127,0.0418 -0.66127,1.25677 0,1.26242 -0.0199,1.29493 -0.79375,1.29493 -0.64809,0 -0.79375,-0.10987 -0.79375,-0.59872 0,-0.36712 0.23029,-0.69975 0.59531,-0.8599 0.6238,-0.27367 0.88039,-1.0899 0.51753,-1.64625 -0.1172,-0.17971 -0.59414,-0.40295 -1.05984,-0.4961 l -0.84675,-0.16935 v 1.88516 1.88516 h -1.03315 -1.03316 l 0.13455,-1.00317 c 0.1555,-1.15934 -0.35777,-1.79141 -1.22993,-1.5146 -0.6639,0.21072 -0.99333,1.36499 -0.57894,2.02853 0.26673,0.4271 0.22124,0.48924 -0.35817,0.48924 -0.582121,0 -0.663701,-0.11382 -0.663701,-0.92604 0,-0.50933 0.11906,-0.92605 0.26459,-0.92605 0.14552,0 0.26458,-0.16371 0.26458,-0.3638 0,-0.21166 -0.27661,-0.3638 -0.66146,-0.3638 -0.6151,0 -0.66146,0.0904 -0.66146,1.28984 0,0.70942 -0.11906,1.28985 -0.26458,1.28985 -0.14552,0 -0.26458,-0.59532 -0.26458,-1.32292 0,-0.99954 -0.097,-1.32292 -0.39688,-1.32292 -0.28759,0 -0.39687,0.29572 -0.39687,1.07395 0,0.64859 -0.1048,1.00918 -0.264588,0.91043 -0.145521,-0.0899 -0.264583,-0.58314 -0.264583,-1.096 0,-0.63062 -0.107061,-0.89543 -0.330729,-0.81804 -0.204262,0.0707 -0.324372,0.58498 -0.314103,1.34497 0.0151,1.11787 -0.03996,1.23053 -0.601412,1.23053 -0.598135,0 -0.604106,-0.0213 -0.185399,-0.66029 0.96009,-1.46529 -0.30309,-3.5501 -1.698503,-2.8033 -0.770781,0.41251 -1.025656,1.94808 -0.465295,2.8033 l 0.43264,0.66029 h -1.320713 c -1.122077,0 -1.295352,-0.0661 -1.152097,-0.43941 0.133752,-0.34855 0.04998,-0.40838 -0.405179,-0.28935 -0.315586,0.0825 -0.573794,0.0421 -0.573794,-0.0898 0,-0.1319 0.246406,-0.23982 0.547569,-0.23982 0.409988,0 0.526325,-0.14278 0.463021,-0.56829 -0.122349,-0.82237 -0.853862,-1.21407 -1.408176,-0.75403 -0.310116,0.25737 -0.413299,0.66714 -0.345916,1.37372 0.06584,0.69043 -0.01013,1.00694 -0.241693,1.00694 -0.241742,0 -0.337721,-0.52636 -0.337721,-1.85209 0,-1.16403 -0.107496,-1.85208 -0.289354,-1.85208 -0.159144,0 -0.348746,0.22712 -0.421337,0.50471 -0.07259,0.27758 -0.353678,0.56268 -0.624639,0.63353 -0.623813,0.16313 -0.960038,1.42527 -0.553217,2.07669 0.291556,0.46686 0.142053,0.48924 -3.268587,0.48924 h -3.574117 z m 3.704167,-3.25437 c 0,-0.50932 0.119063,-0.92604 0.264583,-0.92604 0.145521,0 0.264584,0.41672 0.264584,0.92604 0,0.64676 0.119692,0.92604 0.396875,0.92604 0.266474,0 0.396875,-0.26652 0.396875,-0.81114 0,-1.24843 -0.412581,-1.80262 -1.322758,-1.77674 -0.769875,0.0219 -0.793909,0.0614 -0.793909,1.30523 0,0.96374 0.09868,1.28265 0.396875,1.28265 0.277183,0 0.396875,-0.27928 0.396875,-0.92604 z m 2.350329,-0.79375 c -0.02737,-1.26232 -0.13379,-1.71979 -0.400061,-1.71979 -0.270095,0 -0.362768,0.43934 -0.362768,1.71979 0,1.3584 0.08407,1.71979 0.40006,1.71979 0.319818,0 0.392581,-0.34495 0.362769,-1.71979 z m 2.101216,0.49357 c 0.18038,-0.67442 0.272527,-1.28165 0.204771,-1.34941 -0.212111,-0.21211 -0.687566,0.20754 -0.687566,0.60687 0,0.20969 -0.119062,0.38126 -0.264583,0.38126 -0.145521,0 -0.264584,-0.17157 -0.264584,-0.38126 0,-0.40252 -0.476109,-0.81832 -0.690974,-0.60346 -0.06963,0.0696 0.01196,0.67687 0.181304,1.34941 0.418241,1.66099 1.076869,1.65951 1.521632,-0.003 z m 2.376494,0.72308 c 0.08776,-0.26684 -0.03631,-0.32946 -0.442353,-0.22328 -0.310379,0.0812 -0.631002,0.0397 -0.712496,-0.0922 -0.08149,-0.13186 0.156513,-0.23974 0.528904,-0.23974 0.788925,0 0.938335,-0.77671 0.25802,-1.34133 -0.826227,-0.6857 -1.842113,0.63594 -1.40057,1.82211 0.174228,0.46805 0.395966,0.59323 0.937368,0.52917 0.390035,-0.0462 0.764042,-0.25079 0.831127,-0.45476 z m 1.109461,-0.27746 c 0,-0.44846 0.184674,-0.88395 0.434022,-1.0235 0.572381,-0.32032 0.266899,-0.77811 -0.493649,-0.73977 -0.525112,0.0265 -0.612111,0.19054 -0.682474,1.2871 -0.06385,0.995 0.005,1.25677 0.330729,1.25677 0.279152,0 0.411372,-0.2509 0.411372,-0.7806 z m 2.598302,0.441 c 0.158251,-0.19068 0.186678,-0.49359 0.06483,-0.69075 -0.11936,-0.19313 -0.162488,-0.55967 -0.09584,-0.81453 0.134867,-0.51574 -0.489882,-0.87081 -1.112079,-0.63205 -0.513304,0.19697 -0.526751,1.4186 -0.01562,1.4186 0.209693,0 0.457794,0.12383 0.551336,0.27519 0.11037,0.17858 -0.07096,0.21469 -0.516543,0.10285 -0.559734,-0.14048 -0.656388,-0.0935 -0.523028,0.25398 0.195487,0.50943 1.250036,0.56495 1.646943,0.0867 z m 1.325113,-1.38019 c -0.04424,-1.19816 -0.16737,-1.71979 -0.405956,-1.71979 -0.245099,0 -0.342459,0.48893 -0.342459,1.71979 0,1.36941 0.08271,1.71979 0.405956,1.71979 0.329762,0 0.394038,-0.32279 0.342459,-1.71979 z m 2.42659,0 c 0,-1.35232 -0.0848,-1.71979 -0.39688,-1.71979 -0.21828,0 -0.39687,0.17859 -0.39687,0.39687 0,0.21828 -0.17441,0.39688 -0.387571,0.39688 -0.445668,0 -0.93535,0.79429 -0.93535,1.51719 0,0.70375 0.517953,1.12864 1.375831,1.12864 0.73541,0 0.74084,-0.0126 0.74084,-1.71979 z m -1.322921,0.52917 c 0,-0.36381 0.119062,-0.66146 0.264583,-0.66146 0.145518,0 0.264588,0.29765 0.264588,0.66146 0,0.3638 -0.11907,0.66145 -0.264588,0.66145 -0.145521,0 -0.264583,-0.29765 -0.264583,-0.66145 z m 3.704172,0.16468 c 0,-1.14877 -0.507861,-1.74629 -1.276811,-1.50223 -0.39638,0.1258 -0.51369,0.42223 -0.53221,1.34477 -0.0236,1.17827 -0.0198,1.1834 0.89263,1.1834 0.887901,0 0.916391,-0.0319 0.916391,-1.02594 z m -1.190631,0.23219 c -0.0899,-0.14552 -0.0374,-0.26458 0.11668,-0.26458 0.15411,0 0.2802,0.11906 0.2802,0.26458 0,0.14552 -0.0525,0.26458 -0.11668,0.26458 -0.0642,0 -0.19026,-0.11906 -0.2802,-0.26458 z m 0,-1.05833 c 0.0899,-0.14552 0.21603,-0.26459 0.2802,-0.26459 0.0642,0 0.11668,0.11907 0.11668,0.26459 0,0.14552 -0.12609,0.26458 -0.2802,0.26458 -0.15411,0 -0.20662,-0.11906 -0.11668,-0.26458 z m 3.571881,0.13229 c 0,-1.35232 -0.0848,-1.71979 -0.39688,-1.71979 -0.21828,0 -0.39687,0.17859 -0.39687,0.39687 0,0.21828 -0.11056,0.39688 -0.24569,0.39688 -0.45191,0 -1.07723,0.82498 -1.07723,1.42119 0,0.79517 0.48249,1.22464 1.37583,1.22464 0.73541,0 0.74084,-0.0126 0.74084,-1.71979 z m -1.32292,0.52917 c 0,-0.36381 0.11906,-0.66146 0.26458,-0.66146 0.14552,0 0.26459,0.29765 0.26459,0.66146 0,0.3638 -0.11907,0.66145 -0.26459,0.66145 -0.14552,0 -0.26458,-0.29765 -0.26458,-0.66145 z m 3.65304,0.68748 c 0.0878,-0.26688 -0.0363,-0.32946 -0.44262,-0.22321 -0.31052,0.0812 -0.56459,0.0397 -0.56459,-0.0922 0,-0.1319 0.24641,-0.23981 0.54757,-0.23981 0.40999,0 0.52633,-0.14279 0.46302,-0.56829 -0.11996,-0.80633 -0.85257,-1.21515 -1.38528,-0.77304 -0.42224,0.35043 -0.58053,1.88541 -0.23052,2.23542 0.30823,0.30823 1.48062,0.0618 1.61242,-0.3389 z m 2.69696,-0.12746 c 0,-0.40808 0.18672,-0.67943 0.52917,-0.76898 0.74845,-0.19572 0.65831,-0.71709 -0.12399,-0.71709 -0.47188,0 -0.61089,-0.11014 -0.50086,-0.39687 0.0838,-0.21828 0.37768,-0.39688 0.65315,-0.39688 0.27548,0 0.50086,-0.11906 0.50086,-0.26458 0,-0.14552 -0.41672,-0.26458 -0.92604,-0.26458 h -0.92604 v 1.71979 c 0,1.35231 0.0848,1.71979 0.39687,1.71979 0.24177,0 0.39688,-0.24645 0.39688,-0.6306 z m 3.11975,0.13981 c 0.0851,-0.259 -0.0377,-0.30912 -0.44261,-0.1806 -0.33196,0.10535 -0.56047,0.0627 -0.56047,-0.10453 0,-0.15533 0.30568,-0.28241 0.67928,-0.28241 0.58311,0 0.65299,-0.0843 0.49351,-0.59532 -0.5503,-1.76337 -2.31388,-0.82459 -1.8586,0.98937 0.14182,0.56506 0.30775,0.68191 0.87307,0.61482 0.38388,-0.0456 0.751,-0.24415 0.81582,-0.44133 z m 2.70108,-1.229 c 0,-1.35232 -0.0848,-1.71979 -0.39687,-1.71979 -0.22428,0 -0.39688,0.23692 -0.39688,0.54478 0,0.31105 -0.11848,0.47155 -0.27617,0.3741 -0.4733,-0.29252 -1.04674,0.42973 -1.04674,1.31838 0,1.06498 0.14104,1.20232 1.23472,1.20232 h 0.88194 z m -1.32291,0.52917 c 0,-0.36381 0.11906,-0.66146 0.26458,-0.66146 0.14552,0 0.26458,0.29765 0.26458,0.66146 0,0.3638 -0.11906,0.66145 -0.26458,0.66145 -0.14552,0 -0.26458,-0.29765 -0.26458,-0.66145 z m 3.54655,0.76431 c 0.13241,-0.34503 0.0369,-0.39451 -0.50085,-0.25954 -0.38396,0.0964 -0.66445,0.053 -0.66445,-0.10286 0,-0.14829 0.29765,-0.26962 0.66145,-0.26962 0.73251,0 0.84829,-0.43711 0.31057,-1.17248 -0.8066,-1.1031 -2.18521,0.42355 -1.51438,1.677 0.35298,0.65954 1.47146,0.74305 1.70766,0.1275 z m 1.21595,-0.35182 c 0,-0.42798 0.11906,-0.85172 0.26458,-0.94166 0.49148,-0.30375 0.26925,-0.83794 -0.33073,-0.79499 -0.51351,0.0368 -0.60639,0.21247 -0.67595,1.2787 -0.0637,0.97629 0.006,1.23608 0.33072,1.23608 0.27886,0 0.41138,-0.25066 0.41138,-0.77813 z m 2.910415,-0.0973 c 0,-1.18763 -0.53819,-1.88713 -1.2726,-1.65404 -0.372935,0.11836 -0.559205,0.38185 -0.537275,0.76003 0.0185,0.31837 0.002,0.69792 -0.0357,0.84344 -0.18132,0.6931 0.05,0.92604 0.919495,0.92604 0.87176,0 0.92604,-0.0513 0.92604,-0.87547 z m -1.32291,0.0817 c 0,-0.14552 0.12609,-0.26458 0.28019,-0.26458 0.15411,0 0.20662,0.11906 0.11668,0.26458 -0.0899,0.14552 -0.21602,0.26458 -0.2802,0.26458 -0.0642,0 -0.11667,-0.11906 -0.11667,-0.26458 z m -2.381255,-14.2875 v -8.99583 H 63.398331 47.655618 v 8.99583 8.99583 h 15.742713 15.74271 z m -25.773361,2.89012 c -0.641038,-0.76183 -0.684978,-0.99096 -0.684978,-3.57188 0,-2.58143 0.03384,-2.75782 0.529167,-2.75782 0.493888,0 0.529166,0.17639 0.529166,2.64583 0,2.29306 0.07056,2.71639 0.529167,3.175 0.636987,0.63699 0.771879,0.64734 1.528629,0.11729 0.54383,-0.38091 0.588038,-0.61961 0.588038,-3.175 0,-2.58673 0.03378,-2.76312 0.529166,-2.76312 0.497228,0 0.529167,0.17639 0.529167,2.92244 0,2.75006 -0.03831,2.96075 -0.649432,3.57188 -0.980791,0.98079 -2.526758,0.90655 -3.42809,-0.16462 z m 5.665022,-2.75783 v -3.57187 h 1.719788 c 1.54341,0 1.7198,0.0543 1.7198,0.52916 0,0.45078 -0.17639,0.52917 -1.19063,0.52917 -1.18432,0 -1.19062,0.005 -1.19062,0.92604 0,0.92114 0.006,0.92604 1.19062,0.92604 1.01424,0 1.19063,0.0784 1.19063,0.52917 0,0.45077 -0.17639,0.52917 -1.19063,0.52917 h -1.19062 v 1.5875 c 0,1.41111 -0.0588,1.5875 -0.529171,1.5875 -0.503035,0 -0.529167,-0.17639 -0.529167,-3.57188 z m 5.729899,3.27223 c -1.15914,-0.67379 -1.63403,-3.9325 -0.82236,-5.64298 0.94392,-1.98915 3.42929,-1.92006 4.48668,0.12472 0.82502,1.59541 0.29486,4.89911 -0.88776,5.53203 -0.67768,0.36268 -2.14143,0.35542 -2.77656,-0.0138 z m 2.21239,-0.97394 c 0.79318,-0.64228 1.0084,-2.71614 0.42642,-4.10901 -0.37721,-0.90279 -0.50368,-0.99362 -1.27877,-0.91849 -1.16629,0.11305 -1.58343,0.96141 -1.45887,2.967 0.0768,1.23585 0.22284,1.66266 0.70183,2.05052 0.74896,0.60647 0.87181,0.60723 1.60939,0.01 z m 3.17021,-2.29829 v -3.57187 h 1.40464 c 1.75586,0 2.29516,0.38578 2.48151,1.7751 0.1251,0.93269 0.0458,1.19616 -0.53469,1.77666 -0.43397,0.43397 -0.97429,0.68157 -1.48735,0.68157 -0.80031,0 -0.80577,0.01 -0.80577,1.45521 0,1.27882 -0.0641,1.45521 -0.52917,1.45521 -0.50304,0 -0.52917,-0.17639 -0.52917,-3.57188 z m 2.6231,-0.99219 c 0.30679,-0.81246 -0.11846,-1.52135 -0.91261,-1.52135 -0.58446,0 -0.65215,0.10986 -0.65215,1.05833 0,0.9561 0.0647,1.05834 0.66998,1.05834 0.4518,0 0.74319,-0.19387 0.89478,-0.59532 z m -22.466849,20.04219 c 0,-0.3638 0.119062,-0.66146 0.264583,-0.66146 0.145521,0 0.264584,0.29766 0.264584,0.66146 0,0.3638 -0.119063,0.66146 -0.264584,0.66146 -0.145521,0 -0.264583,-0.29766 -0.264583,-0.66146 z m 6.396621,0.33767 c -0.549556,-0.54956 -0.292857,-2.05746 0.350254,-2.05746 0.667484,0 0.904897,1.58525 0.311205,2.07798 -0.255772,0.21227 -0.434202,0.20673 -0.661459,-0.0205 z m 7.097128,-0.33767 c 0,-0.3638 0.11906,-0.66146 0.26459,-0.66146 0.14552,0 0.26458,0.29766 0.26458,0.66146 0,0.3638 -0.11906,0.66146 -0.26458,0.66146 -0.14553,0 -0.26459,-0.29766 -0.26459,-0.66146 z m 12.06541,0.23919 c -0.17944,-0.4676 0.006,-0.90065 0.38562,-0.90065 0.31707,0 0.32717,0.97878 0.0121,1.17349 -0.13027,0.0805 -0.30925,-0.0423 -0.39773,-0.27284 z m -8.09666,-1.57772 c 0,-0.22687 0.11906,-0.3389 0.26459,-0.24897 0.14552,0.0899 0.26458,0.27556 0.26458,0.41249 0,0.13693 -0.11906,0.24897 -0.26458,0.24897 -0.14553,0 -0.26459,-0.18562 -0.26459,-0.41249 z M 60.21326,175.49582 c -0.23365,-0.37041 -0.458695,-0.39106 -1.598178,-0.14669 -1.701024,0.36481 -3.276519,-0.0117 -4.386037,-1.04814 -0.675294,-0.63082 -0.789523,-0.90138 -0.658062,-1.55869 0.234488,-1.17243 1.303102,-2.23958 1.905235,-1.90261 0.722604,0.40439 1.916994,-0.13361 2.426489,-1.093 0.298026,-0.56118 0.418612,-1.32543 0.371197,-2.35256 -0.159903,-3.4639 -0.142619,-4.58939 0.07767,-5.05787 0.205091,-0.43615 0.168318,-0.45961 -0.314987,-0.20095 -0.743899,0.39812 -1.439919,2.58524 -1.261865,3.96519 0.07772,0.60235 0.206938,1.60121 0.287147,2.21967 0.107176,0.8264 0.06769,1.04641 -0.148973,0.82998 -0.169821,-0.16964 -0.315778,-1.41352 -0.344272,-2.93397 l -0.04947,-2.63947 -1.747937,0.12253 c -1.604521,0.11248 -1.78362,0.0716 -2.182813,-0.49834 -0.623995,-0.89088 -0.536303,-1.15961 0.217275,-0.66585 0.81328,0.53288 2.256868,0.55199 2.935301,0.0388 0.504308,-0.38144 0.503572,-0.38862 -0.04071,-0.39688 -0.604858,-0.009 -1.539363,-0.86926 -1.254258,-1.15436 0.09733,-0.0973 0.381361,-0.17697 0.631176,-0.17697 0.249816,0 0.516482,-0.23813 0.592591,-0.52917 0.110452,-0.42236 0.360896,-0.52916 1.240885,-0.52916 0.896836,0 1.086284,-0.0842 1.015559,-0.45147 -0.05455,-0.28323 -0.467735,-0.53059 -1.108769,-0.66377 -1.65322,-0.34349 -2.811837,-0.99867 -2.811837,-1.59006 0,-0.51177 0.01451,-0.51043 0.46302,0.0427 0.339166,0.41831 0.869974,0.61298 1.984376,0.72778 1.401141,0.14434 1.521354,0.11455 1.521354,-0.37706 0,-0.75983 -0.616919,-1.17344 -1.81946,-1.21985 -0.57267,-0.0221 -0.995018,-0.0877 -0.938551,-0.14568 0.05647,-0.058 -0.303989,-0.5556 -0.801013,-1.10575 -0.848106,-0.93875 -1.463222,-2.40778 -1.466584,-3.50251 -8.12e-4,-0.26423 -0.124727,-0.71071 -0.275368,-0.99219 -0.213206,-0.39837 -0.187486,-0.51177 0.11608,-0.51177 0.262937,0 0.450095,0.4094 0.574537,1.25677 0.241682,1.6457 0.553736,2.44826 1.23452,3.175 0.880589,0.94004 0.966814,0.70269 0.262057,-0.72136 -0.517175,-1.04502 -0.611559,-1.52268 -0.457463,-2.31511 l 0.194154,-0.99842 0.370876,1.24731 c 0.246797,0.83001 0.656803,1.46487 1.225524,1.89762 1.319304,1.00389 2.126881,1.10723 3.089723,0.39537 l 0.821799,-0.60758 -1.66073,-0.33578 c -2.038158,-0.41209 -2.708616,-1.07467 -2.487747,-2.45854 0.09195,-0.57612 0.425755,-1.15491 0.873954,-1.51537 0.62764,-0.50478 0.691048,-0.67967 0.471415,-1.30024 -0.217123,-0.61349 -0.488048,-0.76473 -1.876289,-1.04746 -4.007438,-0.81615 -6.594796,-4.12558 -6.014072,-7.69246 l 0.208866,-1.28287 0.166897,1.64296 c 0.217978,2.14582 1.164268,3.95891 2.588765,4.96009 0.937125,0.65863 1.380928,0.78855 2.719891,0.79617 1.430578,0.008 1.667728,-0.0695 2.23913,-0.73325 1.098256,-1.27572 0.693863,-3.30758 -0.604972,-3.03966 -0.305815,0.0631 -0.443142,0.28351 -0.384489,0.61716 0.05018,0.28546 0.109715,0.87621 0.132292,1.31278 0.0391,0.75607 -0.01406,0.79769 -1.119895,0.87689 -2.790086,0.19981 -4.786213,-2.0588 -4.790705,-5.42066 -0.0015,-1.141 0.989033,-2.73227 1.700829,-2.73227 0.735899,0 1.208112,-0.95802 1.208112,-2.45101 0,-1.82481 0.307819,-2.68343 1.162868,-3.24368 0.610521,-0.40003 0.727911,-0.3972 1.648765,0.0398 1.715106,0.81387 3.268263,0.26356 3.799545,-1.34623 0.48658,-1.47437 1.14027,-1.8586 3.156733,-1.8555 2.09064,0.003 3.06259,0.50006 3.3262,1.70031 0.20357,0.92681 1.46251,1.9308 2.42111,1.9308 0.36095,0 1.0546,-0.21451 1.54145,-0.4767 0.84107,-0.45294 0.91997,-0.4539 1.58336,-0.0192 0.90085,0.59026 1.20372,1.42472 1.20372,3.31642 0,1.4942 0.46639,2.40504 1.23149,2.40504 0.52364,0 1.43862,1.26751 1.59048,2.20326 0.0853,0.52593 0.0121,1.52527 -0.16267,2.22076 -0.62261,2.47703 -2.36662,3.88887 -4.60252,3.7259 -1.03819,-0.0757 -1.0972,-0.12438 -1.05844,-0.87388 0.0226,-0.43657 0.0821,-1.03188 0.1323,-1.32292 0.0694,-0.40276 -0.0735,-0.54829 -0.5985,-0.60923 -0.55102,-0.064 -0.75518,0.0779 -1.01511,0.70545 -0.27167,0.65585 -0.25301,0.93802 0.11299,1.7093 0.53001,1.11692 1.61025,1.62221 3.05404,1.42856 2.70248,-0.36248 4.31136,-2.08892 4.88132,-5.238 0.27753,-1.53339 0.37103,-1.76149 0.4258,-1.03879 0.20335,2.6828 -0.37278,4.35065 -1.99479,5.77479 -1.29626,1.13813 -2.39934,1.68442 -4.11305,2.03692 -1.22875,0.25275 -1.49556,0.41367 -1.71446,1.03401 -0.2163,0.61294 -0.16794,0.80861 0.29188,1.18095 0.84438,0.68374 1.21255,1.55802 1.02181,2.42647 -0.20364,0.92715 -0.82308,1.31115 -2.75243,1.70624 l -1.4334,0.29353 0.84132,0.59907 c 0.63575,0.4527 1.03828,0.5558 1.64747,0.422 1.1401,-0.2504 2.56156,-1.76229 2.79098,-2.96851 l 0.18945,-0.99609 0.21375,0.78924 c 0.24043,0.88775 -0.0786,2.35024 -0.70794,3.24565 -0.61939,0.8812 -0.0133,0.72251 0.76265,-0.19969 0.41159,-0.48916 0.73248,-1.27803 0.83408,-2.05052 0.0908,-0.69054 0.1887,-1.43274 0.2175,-1.64935 0.0288,-0.21661 0.25176,-0.43224 0.49547,-0.47917 0.37226,-0.0717 0.40528,0.0335 0.20657,0.65842 -0.13009,0.40906 -0.3829,1.33362 -0.5618,2.05457 -0.32041,1.2912 -1.80932,3.31776 -2.43984,3.32086 -0.16497,8.2e-4 -0.74642,0.12548 -1.29213,0.27702 -0.85095,0.23633 -0.99218,0.38324 -0.99218,1.03209 0,0.57954 0.10833,0.7348 0.46302,0.66361 0.25466,-0.0511 0.91614,-0.16567 1.46996,-0.25457 0.55382,-0.0889 1.23843,-0.39312 1.52136,-0.67605 0.35232,-0.35232 0.51441,-0.40227 0.51441,-0.15854 0,0.61005 -0.89082,1.19963 -2.39258,1.58352 -0.92539,0.23656 -1.4746,0.52468 -1.52943,0.80236 -0.0683,0.34566 0.13737,0.43326 1.01696,0.43326 0.87999,0 1.13043,0.1068 1.24088,0.52916 0.0766,0.29287 0.3609,0.52917 0.63669,0.52917 0.80097,0 0.57335,0.78774 -0.33839,1.1711 -0.80594,0.33887 -0.81631,0.36272 -0.28198,0.64869 0.88292,0.47252 2.27762,0.35668 2.92087,-0.2426 0.69878,-0.65101 0.79216,-0.1471 0.14418,0.77802 -0.39936,0.57018 -0.57759,0.61076 -2.18281,0.49706 l -1.74794,-0.12381 -0.0414,2.27379 c -0.0228,1.25059 -0.15801,2.57145 -0.30057,2.93525 -0.18644,0.47579 -0.2206,0.0204 -0.12172,-1.62225 0.20368,-3.38383 -0.27622,-5.02807 -1.49373,-5.11776 -0.2816,-0.0207 -0.67076,-0.16113 -0.8648,-0.31195 -0.79977,-0.62165 -1.31035,-0.61351 -1.955,0.0311 -0.77813,0.77813 -0.7958,1.06037 -0.14612,2.33467 0.61747,1.21112 0.47074,1.28609 -0.23896,0.12209 -0.67847,-1.11277 -0.67724,-2.42872 0.003,-3.10886 0.67721,-0.67721 0.66556,-0.79375 -0.0794,-0.79375 -1.25409,0 -1.52416,1.04669 -0.95493,3.70093 0.24554,1.1449 0.22177,1.44771 -0.15925,2.02923 l -0.44786,0.68352 -0.53751,-0.53751 c -0.514113,-0.51411 -0.522233,-0.6316 -0.186443,-2.69926 0.408533,-2.51566 0.239163,-3.00147 -1.09185,-3.13178 l -0.89032,-0.0872 0.71856,0.71856 c 0.87094,0.87094 0.93838,2.00241 0.1923,3.22609 -0.28836,0.47294 -0.58832,0.85989 -0.66657,0.85989 -0.0783,0 0.0249,-0.26789 0.22921,-0.59531 0.7443,-1.1927 0.7621,-2.01151 0.059,-2.71459 -0.51018,-0.51017 -0.78453,-0.6042 -1.25503,-0.43015 -1.052701,0.38942 -1.681184,1.5216 -1.63747,2.94983 0.05246,1.71402 0.803834,3.90227 1.4606,4.25376 0.29135,0.15593 0.55496,0.24409 0.58579,0.19592 0.0308,-0.0482 0.20093,-0.42436 0.37801,-0.83597 0.36644,-0.85179 0.93358,-0.82099 1.06249,0.0577 0.10256,0.69916 0.70503,0.99928 1.192993,0.5943 0.25035,-0.20777 0.42854,-0.20623 0.64031,0.006 0.42173,0.42174 1.0671,0.0904 1.16836,-0.59983 0.12891,-0.87868 0.69605,-0.90948 1.06249,-0.0577 0.17707,0.41161 0.34717,0.7878 0.37801,0.83597 0.0308,0.0482 0.30188,-0.044 0.60233,-0.20478 0.77631,-0.41546 1.43773,-2.87214 1.29702,-4.81741 -0.0796,-1.10018 -0.03,-1.47312 0.16923,-1.27393 0.32109,0.32095 0.34154,2.40362 0.0428,4.35645 -0.28545,1.8659 0.23091,3.30346 1.39543,3.88488 0.71231,0.35564 0.99434,0.38227 1.40078,0.13229 0.43073,-0.26491 0.59024,-0.21138 1.03831,0.34846 1.27061,1.58756 1.15785,2.82407 -0.32758,3.59221 -1.47756,0.76408 -2.33532,0.90154 -3.7425,0.59975 -1.14628,-0.24583 -1.38297,-0.22551 -1.65154,0.14179 -0.34755,0.4753 -2.1044,0.5969 -2.37184,0.16417 -0.0899,-0.14552 -0.44713,-0.26459 -0.79375,-0.26459 -0.34663,0 -0.703823,0.11907 -0.793753,0.26459 -0.27212,0.4403 -2.08832,0.31382 -2.39132,-0.16654 z m -2.349651,-0.39747 c 0.101938,-0.16494 -0.03959,-0.42436 -0.315114,-0.5776 -1.093416,-0.60812 -1.955376,-1.72876 -1.955376,-2.54221 0,-0.44775 -0.08162,-0.8141 -0.181385,-0.8141 -0.386179,0 -1.406115,1.17426 -1.406115,1.61887 0,1.32729 3.259596,3.28326 3.85799,2.31504 z m 13.469512,-0.45981 c 0.43507,-0.25184 0.96841,-0.77389 1.18519,-1.16012 0.36107,-0.64329 0.34884,-0.76292 -0.14568,-1.42528 -0.78409,-1.0502 -1.16909,-1.08203 -1.16909,-0.0967 0,0.83665 -0.84757,1.94813 -1.95538,2.56426 -0.29832,0.16592 -0.42014,0.40766 -0.30186,0.59904 0.23618,0.38215 1.24746,0.17825 2.38682,-0.48125 z M 62.459,174.75232 c 0.33086,-0.39866 0.569721,-5.1273 0.26842,-5.31351 -0.093,-0.0575 -0.56556,0.79752 -1.05008,1.90003 -0.72204,1.64299 -0.82524,2.09375 -0.57216,2.49899 0.16982,0.27194 0.30877,0.67464 0.30877,0.89489 0,0.50769 0.63017,0.5195 1.04505,0.0196 z m 3.102011,-0.60251 c 0.27693,-0.88476 0.22692,-1.17605 -0.49876,-2.90481 -0.4436,-1.05679 -0.88791,-1.87115 -0.98735,-1.80969 -0.33894,0.20947 -0.13707,4.83526 0.23033,5.27795 0.55119,0.66414 0.92389,0.49692 1.25578,-0.56345 z m -5.981748,0.18032 c 0.281477,-0.15064 0.511777,-0.44463 0.511777,-0.65331 0,-0.20868 0.24622,-0.85182 0.54717,-1.4292 0.57656,-1.10616 0.61249,-2.68559 0.0652,-2.86511 -0.17254,-0.0566 -0.48212,0.21853 -0.68796,0.6114 l -0.374258,0.71429 -0.175065,-1.0948 c -0.21105,-1.31983 -0.578433,-1.41811 -0.804119,-0.2151 -0.09077,0.48384 -0.516503,1.21643 -0.946079,1.62799 -0.784556,0.75165 -0.854407,1.30234 -0.129932,1.02433 0.23441,-0.09 0.388402,0.007 0.388402,0.24528 0,0.21688 -0.248481,0.4593 -0.552179,0.53872 -1.128341,0.29507 -0.09247,1.45876 1.56176,1.75447 0.04595,0.008 0.313838,-0.10832 0.595313,-0.25896 z m 9.838338,-0.30118 c 0.62229,-0.31892 0.58654,-0.93756 -0.0662,-1.14472 -0.29104,-0.0924 -0.52916,-0.35126 -0.52916,-0.5753 0,-0.25339 0.15,-0.34979 0.39687,-0.25506 0.63774,0.24472 0.45938,-0.35151 -0.39687,-1.32673 -0.43657,-0.49722 -0.79375,-1.19754 -0.79375,-1.55628 0,-0.97856 -0.48032,-0.78486 -0.67892,0.27379 -0.19558,1.04253 -0.51013,1.20197 -0.72795,0.369 -0.22714,-0.86859 -0.83294,-0.43688 -0.92514,0.65928 -0.0542,0.64481 0.10641,1.30849 0.46302,1.9129 0.30034,0.50904 0.54607,1.0914 0.54607,1.29413 0,0.83836 1.40444,1.01908 2.71198,0.34899 z M 60.08262,160.11809 c -0.005,-0.10915 -0.18322,-0.42956 -0.396874,-0.71203 -0.5582,-0.73801 -0.488585,-2.75854 0.129995,-3.77305 1.489929,-2.44355 5.74814,-2.35982 7.22061,0.142 0.5664,0.96235 0.59523,2.56197 0.0645,3.57957 -0.48417,0.92835 -0.48516,0.96194 -0.0285,0.96194 0.2017,0 0.55888,-0.40494 0.79375,-0.89988 1.39914,-2.94847 -0.94529,-6.24387 -4.44205,-6.24387 -2.007591,0 -3.645033,0.97184 -4.547262,2.69884 -0.746316,1.42857 -0.187032,4.44491 0.824166,4.44491 0.214545,0 0.386295,-0.0893 0.381665,-0.19843 z m 1.20934,-0.34741 c 0.0956,-0.15469 -0.0164,-0.49148 -0.24896,-0.74843 -0.47923,-0.52954 -0.55745,-1.92849 -0.15037,-2.68913 0.34216,-0.63933 1.61027,-1.30826 2.480111,-1.30826 2.21943,0 3.56963,2.39451 2.2769,4.03795 -0.47018,0.59774 -0.4808,0.68739 -0.0988,0.834 0.57766,0.22167 1.06668,-0.23155 1.42661,-1.32216 0.43054,-1.30454 0.10403,-2.32932 -1.08417,-3.40279 -0.90801,-0.82033 -1.21503,-0.94075 -2.39838,-0.94075 -2.425021,0 -4.184406,1.78828 -3.84105,3.90414 0.219619,1.35334 1.204629,2.33676 1.638069,1.63543 z m 3.561581,-0.77707 c 1.18857,-1.18858 0.29646,-3.175 -1.4259,-3.175 -1.244431,0 -2.101881,0.75555 -2.101881,1.85208 0,1.65328 2.325391,2.5253 3.527781,1.32292 z m -0.54534,-10.52569 c 0.009,-0.62314 -0.16566,-1.56815 -0.38789,-2.10003 -0.37413,-0.89542 -0.43613,-0.93498 -0.83702,-0.5341 -0.676001,0.676 -0.768211,3.12772 -0.18953,5.03899 l 0.49093,1.62143 0.45368,-1.44665 c 0.24952,-0.79567 0.46094,-1.9565 0.46983,-2.57964 z m -6.050252,3.22675 c 0.238299,-0.28713 0.666533,-0.38942 1.355313,-0.32373 1.185248,0.11303 1.234008,-0.009 0.338958,-0.85013 -0.80173,-0.75319 -2.283863,-0.807 -3.053089,-0.11086 -0.589339,0.53334 -0.645865,0.93589 -0.194762,1.38699 0.442039,0.44204 1.139976,0.3961 1.55358,-0.10227 z m 11.867692,-0.0728 c 0.33034,-0.61725 -0.0909,-1.22938 -1.10492,-1.60559 -0.80709,-0.29943 -1.70619,-0.0604 -2.40634,0.63974 -0.64726,0.64727 -0.53862,0.83434 0.42197,0.72657 0.50248,-0.0564 1.07984,0.0722 1.38906,0.3093 0.71832,0.55081 1.38261,0.52346 1.70023,-0.07 z m -8.211211,-1.64432 c -0.22909,-1.06952 -0.55985,-1.6876 -1.29884,-2.42712 -1.132538,-1.13336 -1.925867,-1.25773 -2.493806,-0.39095 -0.61561,0.93954 -0.239389,1.75939 1.063685,2.31795 0.624829,0.26784 1.349331,0.82191 1.610011,1.23129 1.04333,1.63847 1.55492,1.30418 1.11895,-0.73117 z m 3.314341,1.71176 c 0.23018,-0.0883 0.41852,-0.3057 0.41852,-0.48305 0,-0.48008 1.0582,-1.36775 2.18281,-1.83103 0.88089,-0.36289 0.99219,-0.51309 0.99219,-1.33897 0,-1.03238 -0.69863,-1.62785 -1.5812,-1.34773 -1.23461,0.39185 -2.64634,2.82373 -2.65066,4.56606 -0.002,0.65138 0.0255,0.66987 0.63834,0.43472 z m -2.3443,-6.4709 c 0.47507,-0.52495 0.48625,-0.52516 0.99234,-0.0191 0.32943,0.32944 0.57438,1.06355 0.68729,2.05986 l 0.17543,1.54801 0.43499,-0.79375 c 0.23924,-0.43657 0.80067,-1.18805 1.24763,-1.66998 0.88073,-0.94964 1.0448,-1.90901 0.41576,-2.43106 -0.31663,-0.26278 -0.47712,-0.26278 -0.79375,0 -0.21828,0.18115 -0.39687,0.49339 -0.39687,0.69385 0,0.20046 -0.0924,0.36448 -0.20543,0.36448 -0.11299,0 -0.16002,-0.47625 -0.1045,-1.05833 0.0555,-0.58209 -8.8e-4,-1.06555 -0.1253,-1.07436 -2.831241,-0.20045 -3.606991,-0.11221 -3.858071,0.43883 -0.17627,0.38688 -0.16283,0.74839 0.042,1.13122 0.16561,0.30945 0.19697,0.56264 0.0697,0.56264 -0.12728,0 -0.36704,-0.29766 -0.5328,-0.66146 -0.51635,-1.13327 -1.371061,-0.7079 -1.371061,0.68234 0,0.27872 0.399531,0.95359 0.887861,1.49971 0.48832,0.54612 1.05053,1.29061 1.24936,1.65441 0.34796,0.63667 0.36794,0.60416 0.5332,-0.86747 0.10128,-0.90193 0.36874,-1.74666 0.652181,-2.05986 z m -6.951356,-1.91465 c 0.07262,-0.18923 -0.02949,-0.63571 -0.2269,-0.99219 -0.529778,-0.95663 -0.458392,-1.29199 0.339597,-1.59539 1.40858,-0.53554 2.457723,0.33533 2.457723,2.0401 0,0.42179 0.122851,0.62834 0.33073,0.55606 0.199762,-0.0695 0.321154,-0.55687 0.306551,-1.23084 -0.03158,-1.45768 -0.86549,-2.31276 -2.565162,-2.63029 -0.926809,-0.17315 -1.513723,-0.49464 -2.20794,-1.20946 -1.090009,-1.12234 -1.866427,-1.16521 -2.442758,-0.13487 -0.744262,1.33056 0.252904,3.72157 2.05994,4.93933 1.000024,0.67392 1.75038,0.77311 1.948219,0.25755 z m 16.878646,-0.25755 c 1.84673,-1.24451 2.83726,-3.79076 1.98228,-5.09563 -0.5924,-0.90412 -1.3853,-0.81593 -2.37459,0.26412 -0.61331,0.66958 -1.20305,0.99478 -2.18653,1.20569 -1.7483,0.37495 -2.54734,1.20431 -2.57818,2.67602 -0.031,1.48076 0.52384,1.62132 0.71694,0.18162 0.22933,-1.70977 1.37215,-2.297 2.57488,-1.32308 0.57836,0.46832 0.58215,0.50235 0.13251,1.18858 -0.93365,1.42494 0.13306,1.98067 1.73269,0.90268 z M 61.1939,141.50702 c -0.22502,-2.99101 -1.3816,-5.84956 -3.338983,-8.25245 -1.323876,-1.6252 -2.548713,-2.30808 -3.188079,-1.77745 -0.711625,0.59059 -0.427261,1.11143 1.671214,3.06095 2.333983,2.16832 3.666488,4.34006 3.909188,6.3713 0.20544,1.7193 0.31401,2.00874 0.70383,1.87642 0.21644,-0.0735 0.30029,-0.51501 0.24283,-1.27877 z m 5.189081,-0.26583 c 0.46995,-2.52698 1.26859,-3.8716 3.80808,-6.41143 1.28447,-1.28464 2.33539,-2.49045 2.33539,-2.67959 0,-0.18913 -0.18431,-0.49684 -0.40958,-0.6838 -1.01375,-0.84134 -3.65495,1.66607 -5.19148,4.92851 -0.72519,1.53975 -1.52835,4.60173 -1.53809,5.86381 -0.003,0.32742 0.15298,0.59531 0.34558,0.59531 0.21941,0 0.46217,-0.60226 0.6501,-1.61281 z m -3.644561,0.15573 c 0.246061,-0.29648 0.282481,-1.09383 0.142001,-3.10885 -0.402401,-5.77201 -1.289851,-8.06219 -2.886691,-7.44943 -0.755377,0.28987 -0.739248,1.23166 0.0585,3.4164 0.75729,2.07391 1.16003,3.76954 1.49252,6.28386 0.17255,1.3048 0.57987,1.59759 1.19366,0.85802 z m 2.517911,-1.2549 c 0.21121,-1.83675 0.84008,-4.2939 1.70004,-6.6425 0.52331,-1.42921 0.5351,-1.59837 0.15216,-2.18281 -0.74479,-1.1367 -1.77365,-0.63528 -2.35943,1.14988 -0.80481,2.45268 -1.22634,8.42163 -0.6364,9.01158 0.6579,0.6579 0.95411,0.31182 1.14363,-1.33615 z m -6.091582,-0.88408 c -0.988745,-2.02092 -3.811878,-4.94745 -4.657368,-4.82794 -0.462128,0.0653 -0.656248,0.28166 -0.715902,0.79783 -0.07167,0.62017 0.232048,0.94311 2.443084,2.59772 1.388713,1.03922 2.733756,2.24301 2.988983,2.67507 0.757974,1.28315 0.713114,0.33505 -0.0588,-1.24268 z m 8.384342,1.22031 c 0.24563,-0.4317 1.52806,-1.58105 2.84984,-2.55411 2.36896,-1.74397 3.07118,-2.69898 2.44502,-3.32514 -1.00982,-1.00982 -4.60545,2.67016 -5.87717,6.01506 -0.34415,0.90517 0.0411,0.81531 0.58231,-0.13581 z M 59.297285,163.809 c 0,-1.09561 0.369064,-1.64041 1.111255,-1.64041 0.78212,0 0.71373,1.14984 -0.12197,2.05052 -0.775034,0.8353 -0.989285,0.74648 -0.989285,-0.41011 z m 7.044476,0.30504 c -0.80937,-0.75049 -0.85498,-1.75194 -0.0864,-1.89845 0.72806,-0.13881 1.24406,0.45224 1.24406,1.42499 0,1.16649 -0.28465,1.28291 -1.15761,0.47346 z M 51.289095,159.3925 c -0.809506,-1.11288 -0.835077,-2.01211 -0.0885,-3.11224 0.550552,-0.81127 0.626996,-1.11779 0.416714,-1.67087 -0.371253,-0.97647 -0.31794,-1.11147 0.166052,-0.42048 0.232967,0.33261 0.718894,0.71702 1.07984,0.85425 0.739318,0.28109 0.698801,0.8595 -0.07013,1.00118 -0.875293,0.16127 -1.433284,0.86686 -1.433284,1.8124 0,0.75725 0.13099,0.95288 0.836702,1.24961 0.80594,0.33888 0.816307,0.36273 0.281977,0.64869 -0.701598,0.37548 -0.638553,0.3947 -1.189369,-0.36254 z m 22.981536,0.31487 c -0.48344,-0.3552 -0.47523,-0.37829 0.19441,-0.54636 1.4549,-0.36515 1.10566,-2.85104 -0.42558,-3.02927 -0.89572,-0.10426 -0.94693,-0.76886 -0.0845,-1.09675 0.34912,-0.13274 0.82537,-0.51347 1.05833,-0.84608 0.49428,-0.70567 0.54985,-0.52443 0.12506,0.40787 -0.25021,0.54914 -0.20738,0.77104 0.26458,1.37105 0.76325,0.97031 0.74869,2.51676 -0.0322,3.42104 -0.53184,0.61588 -0.64912,0.64984 -1.10009,0.3185 z M 51.888952,133.87544 c 0,-1.4393 0.489739,-3.35934 0.955437,-3.74583 0.474373,-0.3937 0.463036,-0.24846 -0.0629,0.8058 -0.303548,0.60848 -0.385893,1.2383 -0.279427,2.13724 0.110517,0.93314 0.04862,1.35946 -0.231082,1.59159 -0.322622,0.26775 -0.382031,0.14509 -0.382031,-0.7888 z m 22.356809,0.7757 c -0.0902,-0.14595 -0.0868,-0.7798 0.007,-1.40855 0.11748,-0.78341 0.0393,-1.45949 -0.24848,-2.1482 -0.51621,-1.23545 -0.52132,-1.35392 -0.0413,-0.95551 0.68469,0.56824 1.29729,4.77762 0.69529,4.77762 -0.13693,0 -0.32277,-0.11941 -0.41297,-0.26536 z m -17.197434,-5.29089 c -0.276647,-0.44762 0.1262,-0.79375 0.923827,-0.79375 0.528615,0 0.811624,-0.16169 0.92871,-0.53059 0.293556,-0.92492 1.473116,-2.11629 2.073586,-2.09435 0.38666,0.0141 0.44329,0.0681 0.17492,0.16681 -0.7312,0.26886 -1.376283,0.99473 -1.779933,2.00283 -0.518347,1.29455 -1.85008,2.01119 -2.32111,1.24905 z m 11.277024,0.0255 c -0.20056,-0.12703 -0.67681,-0.80688 -1.05834,-1.51078 -0.38152,-0.7039 -0.99134,-1.42983 -1.35514,-1.61317 -0.52303,-0.26359 -0.55909,-0.33417 -0.1723,-0.33725 0.54836,-0.004 1.90992,1.33531 2.16095,2.12624 0.0957,0.30159 0.40342,0.51737 0.74116,0.51974 0.77146,0.005 1.34983,0.39622 1.12493,0.76012 -0.21636,0.35007 -0.93234,0.37745 -1.44126,0.0551 z"
       id="path3321"
       clip-path="url(#clipPath3324)"
       transform="translate(-16.015577,10.720104)" /></g></svg>
