<?xml version="1.0" encoding="UTF-8" standalone="no"?>
<!-- Created with Inkscape (http://www.inkscape.org/) -->

<svg
   width="28.256617mm"
   height="49.959049mm"
   viewBox="0 0 28.256617 49.959049"
   version="1.1"
   id="svg1"
   xml:space="preserve"
   xmlns="http://www.w3.org/2000/svg"
   xmlns:svg="http://www.w3.org/2000/svg"><defs
     id="defs1" /><g
     id="layer1"
     transform="translate(-77.829492,-109.33127)"><path
       d="m 84.816658,158.87262 c -2.55237,-0.74074 -3.434324,-2.38333 -2.186144,-4.07159 0.510703,-0.69076 0.709993,-0.77855 1.451501,-0.63945 1.084137,0.20339 1.800589,-0.17568 2.353728,-1.24533 0.35165,-0.68002 0.395839,-1.21789 0.233027,-2.83643 -0.272545,-2.70941 -0.274923,-2.94034 -0.03942,-3.82943 0.17793,-0.67175 0.152209,-0.73002 -0.195016,-0.44185 -0.755887,0.62733 -1.034197,2.11442 -0.85068,4.54544 0.09715,1.28697 0.07004,2.38254 -0.06096,2.46351 -0.303113,0.18733 -0.937559,-4.40235 -0.70837,-5.12446 0.164492,-0.51827 0.101189,-0.53723 -1.259747,-0.37728 -1.707811,0.20072 -2.411108,-0.10399 -2.797362,-1.21201 -0.327725,-0.94011 -0.224086,-0.98129 0.679959,-0.27016 0.794061,0.6246 1.88362,0.68354 2.601315,0.1407 0.503516,-0.38084 0.502549,-0.38862 -0.04932,-0.39687 -0.309604,-0.005 -0.709877,-0.18549 -0.889496,-0.40192 -0.42152,-0.5079 -0.150473,-1.23406 0.384063,-1.02894 0.223789,0.0859 0.40689,0.0328 0.40689,-0.11785 0,-0.65727 0.848245,-1.11929 1.7458,-0.95091 0.593317,0.1113 0.900033,0.0667 0.900033,-0.13086 0,-0.32713 -0.606667,-0.60836 -2.272029,-1.05324 -1.31748,-0.35194 -2.109873,-1.13771 -1.820155,-1.80495 0.179403,-0.41317 0.218414,-0.41907 0.308973,-0.0467 0.131192,0.53942 1.140702,1.00337 2.626281,1.20699 1.049358,0.14383 1.15693,0.1069 1.15693,-0.39724 0,-0.67456 -0.721979,-1.09892 -1.900835,-1.11727 -1.509998,-0.0235 -2.689888,-1.91154 -3.505069,-5.60874 -0.13372,-0.60647 -0.07149,-0.7276 0.37378,-0.7276 0.426529,0 0.534208,0.17368 0.534208,0.86164 0,1.09207 0.388228,2.45573 0.938023,3.29482 0.571729,0.87257 0.76199,0.61779 0.258964,-0.34678 -0.516244,-0.98992 -0.515802,-2.77172 8.49e-4,-3.42838 0.294256,-0.374 0.393606,-0.40572 0.365526,-0.11672 -0.176581,1.81747 0.933039,3.49193 2.62328,3.95862 0.867097,0.23942 1.03674,0.19868 1.625866,-0.39044 l 0.657757,-0.65776 h -0.96895 c -2.006299,0 -3.120065,-0.84031 -3.120065,-2.35403 0,-0.71744 0.183709,-1.1659 0.661458,-1.61472 0.711367,-0.66829 0.865947,-1.62576 0.330729,-2.04854 -0.181901,-0.14368 -0.819872,-0.32326 -1.417713,-0.39906 -2.425368,-0.30751 -5.249464,-2.51962 -5.865651,-4.59455 -0.406436,-1.36863 -0.397387,-3.44487 0.01926,-4.41829 0.293036,-0.68463 0.32235,-0.59737 0.362791,1.07997 0.09367,3.88506 2.070304,6.14714 5.371464,6.14714 1.475196,0 2.245449,-0.52357 2.54889,-1.73258 0.230571,-0.91866 -0.27529,-1.97159 -0.94722,-1.97159 -0.598636,0 -0.677304,0.45617 -0.243035,1.40929 0.739931,1.62397 -1.079961,2.29719 -3.383158,1.2515 -2.758165,-1.25224 -3.854238,-6.02744 -1.761378,-7.67369 0.379919,-0.29884 0.846272,-0.54335 1.036341,-0.54335 0.567542,0 0.745115,-0.55309 0.790677,-2.46271 0.0321,-1.34532 0.178619,-1.99465 0.568458,-2.51917 0.623535,-0.83895 1.692071,-1.03427 2.512901,-0.45934 1.328896,0.93079 3.163634,0.0926 3.75207,-1.71414 0.373303,-1.14619 1.216877,-1.56707 3.150737,-1.57199 1.94194,-0.005 3.05931,0.54168 3.271009,1.60018 0.191596,0.95798 1.479328,2.10009 2.367857,2.10009 0.357756,0 0.936238,-0.18725 1.285515,-0.4161 0.349276,-0.22886 0.970165,-0.37769 1.379755,-0.33073 1.05818,0.1213 1.97695,1.95679 1.76254,3.52113 -0.16891,1.23233 0.22242,2.25278 0.86391,2.25278 0.22435,0 0.75595,0.34803 1.18132,0.7734 0.65691,0.65691 0.77339,0.98104 0.77339,2.15211 0,3.504 -1.99172,5.7976 -5.04031,5.80426 -1.204454,0.003 -1.675659,-1.00719 -0.985584,-2.11217 0.440851,-0.70592 -0.10852,-1.32584 -0.794407,-0.89642 -1.042908,0.65293 -0.408898,3.11031 0.886339,3.4354 1.353352,0.33967 3.261262,-0.0465 4.272112,-0.86461 1.42213,-1.15102 2.0224,-2.51481 2.19398,-4.98464 l 0.14705,-2.1167 0.3204,1.05833 c 1.23661,4.08484 -1.55667,8.19265 -6.003467,8.82874 -0.959147,0.1372 -1.279091,0.31815 -1.545568,0.87414 -0.308095,0.64282 -0.268419,0.76875 0.477093,1.51426 1.679472,1.67947 0.387207,3.9964 -2.228979,3.9964 H 95.41203 l 0.688484,0.68848 0.688484,0.68849 1.157586,-0.51778 c 1.548181,-0.69249 2.080546,-1.35313 2.324556,-2.88468 0.20306,-1.27447 0.20598,-1.27754 0.51082,-0.53697 0.45159,1.09709 0.3726,2.31865 -0.21191,3.27729 -0.35811,0.58732 -0.40465,0.80419 -0.15174,0.70713 0.5427,-0.20825 1.20345,-1.77478 1.38103,-3.27419 0.12741,-1.07577 0.25192,-1.32277 0.66681,-1.32277 0.36295,0 0.46962,0.13359 0.36972,0.46302 -0.0772,0.25466 -0.27016,1.0545 -0.42874,1.77742 -0.33111,1.50946 -1.13423,2.93394 -1.87881,3.33243 -0.28211,0.15098 -0.44304,0.3876 -0.35761,0.52582 0.0872,0.14104 -0.265517,0.25131 -0.803735,0.25131 -1.226432,0 -1.982596,0.4072 -1.982596,1.06764 0,0.36316 0.179441,0.51942 0.595312,0.51838 1.0975,-0.003 2.560569,-0.54323 2.941139,-1.08657 0.45308,-0.64686 0.84638,-0.21483 0.46061,0.50598 -0.24938,0.46597 -1.39086,1.04274 -3.049399,1.54082 -0.424672,0.12753 -0.82692,0.39682 -0.893885,0.59843 -0.09544,0.28732 0.08307,0.32812 0.825848,0.18878 0.826781,-0.15511 1.004781,-0.0905 1.396043,0.50663 0.256514,0.39149 0.605833,0.62401 0.816193,0.54328 0.50093,-0.19222 0.74865,0.5575 0.34493,1.04396 -0.17962,0.21643 -0.5799,0.39729 -0.889501,0.40192 -0.551874,0.008 -0.552841,0.016 -0.04932,0.39687 0.724791,0.54821 1.809491,0.48215 2.625731,-0.15991 0.64996,-0.51125 0.69686,-0.51573 0.69309,-0.0661 -0.01,1.18153 -1.18247,1.79421 -2.97791,1.55604 -1.282142,-0.17008 -1.315601,-0.15756 -1.159211,0.43385 0.218652,0.82688 -0.386935,5.25178 -0.692875,5.0627 -0.142153,-0.0879 -0.167501,-1.12054 -0.06064,-2.47064 0.159339,-2.01321 0.112252,-2.48098 -0.356397,-3.54044 -0.296997,-0.67141 -0.576454,-1.22051 -0.621017,-1.22022 -0.04456,2.9e-4 -0.08102,1.67706 -0.08102,3.72615 v 3.72562 l 0.762535,0.65683 c 0.617779,0.53214 0.944255,0.62705 1.719791,0.49994 0.866564,-0.14203 1.013654,-0.0732 1.552574,0.72662 0.77259,1.14663 0.75406,2.0646 -0.0571,2.82661 -0.85722,0.80531 -3.326991,1.65203 -3.763087,1.2901 -0.176911,-0.14682 -0.565495,-0.18956 -0.863519,-0.095 -0.337547,0.10713 -0.541864,0.054 -0.541864,-0.14086 0,-0.21752 -0.182033,-0.19357 -0.597443,0.0786 -0.841067,0.55109 -6.472518,0.57473 -7.017786,0.0295 -0.270531,-0.27053 -0.473876,-0.29904 -0.713642,-0.10005 -0.184419,0.15306 -0.541009,0.19935 -0.792421,0.10287 -0.251413,-0.0965 -0.534394,-0.0549 -0.628848,0.0923 -0.11284,0.17593 -0.625418,0.13608 -1.494651,-0.11618 z m 1.451933,-0.53748 c -0.0018,-0.10914 -0.412056,-0.46319 -0.911677,-0.78677 -0.873457,-0.56569 -1.651027,-2.20601 -1.308472,-2.76028 0.235036,-0.38029 -0.223392,-0.24594 -0.732305,0.21462 -0.557904,0.50489 -0.634445,1.64369 -0.153125,2.27824 0.656824,0.86593 3.116251,1.70078 3.105579,1.05419 z m 13.474933,-0.31946 c 1.449566,-0.73951 1.746006,-1.75845 0.830776,-2.85554 -0.651717,-0.78122 -0.72431,-0.75557 -0.748792,0.26458 -0.01636,0.6816 -0.283799,1.09306 -1.28979,1.98438 -1.239309,1.09803 -1.251967,1.12448 -0.538254,1.12448 0.401995,0 1.187722,-0.23306 1.74606,-0.5179 z m -8.676852,0.0549 c 0.01777,-0.10915 0.06489,-1.32954 0.104718,-2.71198 l 0.07241,-2.51355 -0.745911,1.5875 c -0.834402,1.77584 -0.940065,2.53932 -0.458214,3.31089 0.321622,0.51499 0.963142,0.71934 1.026995,0.32714 z m 2.835641,-0.47547 c 0.433231,-0.95084 0.400907,-1.16478 -0.462404,-3.06046 l -0.769458,-1.6896 -0.09044,2.2036 c -0.04974,1.21198 -0.005,2.43237 0.09947,2.71198 0.266304,0.71288 0.859163,0.63263 1.222827,-0.16552 z m -5.554874,-0.51672 c 0.05265,-0.29104 0.250281,-0.70776 0.439185,-0.92604 0.573992,-0.66326 1.056813,-2.61968 0.72772,-2.94878 -0.345921,-0.34592 -0.861228,-0.0762 -0.861228,0.45085 0,0.7683 -0.455267,0.3509 -0.810645,-0.74322 l -0.365238,-1.12448 -0.08759,0.82388 c -0.0515,0.48437 -0.408893,1.13171 -0.867267,1.57086 -0.936241,0.89697 -0.960266,1.06429 -0.18436,1.28396 0.5899,0.167 0.58819,0.17439 -0.188098,0.8129 -0.850932,0.6999 -0.842383,0.77612 0.131642,1.17366 1.004494,0.40998 1.955242,0.23805 2.065883,-0.37359 z m 9.777075,0.0347 c 0.330171,-0.33017 0.297925,-0.42264 -0.24626,-0.70617 -0.826205,-0.43047 -0.793568,-0.38442 -0.610511,-0.86146 0.09948,-0.25924 0.326515,-0.3543 0.597697,-0.25023 0.262701,0.1008 0.09551,-0.24683 -0.418771,-0.87074 -0.518888,-0.62951 -0.856053,-1.33358 -0.856053,-1.78763 0,-1.00265 -0.425497,-0.69195 -0.643454,0.46986 -0.193037,1.02897 -0.543177,1.21411 -0.756126,0.39979 -0.07611,-0.29104 -0.32812,-0.52916 -0.560025,-0.52916 -0.672676,0 -0.511823,1.22828 0.408158,3.11671 0.824588,1.69262 0.835695,1.70237 1.767614,1.55114 0.515796,-0.0837 1.108775,-0.32315 1.317731,-0.53211 z M 91.48221,151.8945 c 0.209071,-0.20907 0.438621,-0.20907 0.829273,0 0.74204,0.39713 0.752982,0.39121 0.932154,-0.50465 0.199204,-0.99603 1.019054,-1.07099 1.446754,-0.1323 0.549207,1.20538 1.094238,0.75548 1.740937,-1.43708 0.575421,-1.9509 0.539897,-3.23884 -0.112197,-4.06784 -0.664668,-0.84499 -1.395622,-1.09498 -2.099771,-0.71813 -0.760394,0.40695 -0.694581,1.67488 0.16387,3.1571 0.661789,1.14266 0.667898,1.18283 0.104138,0.6847 -1.508537,-1.3329 -1.897455,-3.30036 -0.876371,-4.43339 0.507184,-0.56279 0.306475,-0.83695 -0.43941,-0.60021 -0.726962,0.23073 -0.941201,1.20726 -0.579765,2.64265 0.410026,1.62836 0.368211,2.53256 -0.143255,3.09773 -0.573598,0.63381 -0.74047,0.6116 -1.250262,-0.16644 -0.389201,-0.594 -0.390383,-0.80425 -0.01365,-2.42868 0.470774,-2.02994 0.350921,-2.89569 -0.435425,-3.14526 -0.744647,-0.23634 -0.946373,0.0367 -0.443389,0.60021 0.415264,0.46521 0.551479,1.03788 0.494411,2.07859 -0.03353,0.61142 -1.571923,2.88592 -1.798611,2.65923 -0.07792,-0.0779 0.116747,-0.50458 0.432589,-0.94814 1.163492,-1.63397 0.881113,-3.45733 -0.535428,-3.45733 -0.657161,0 -1.507038,0.85322 -1.728398,1.73518 -0.390806,1.5571 0.539168,5.07801 1.41277,5.3488 0.179813,0.0557 0.466815,-0.20567 0.637782,-0.5809 0.431172,-0.94632 1.197447,-0.886 1.416536,0.11151 0.186303,0.84823 0.383396,0.96597 0.844718,0.50465 z m -3.736983,-4.3374 c -0.199568,-1.06379 0.148796,-1.87945 0.905241,-2.11954 1.306451,-0.41465 1.49759,1.24246 0.269522,2.33668 -0.435302,0.38785 -0.838771,0.70519 -0.896596,0.70519 -0.05783,0 -0.183,-0.41505 -0.278167,-0.92233 z m 7.170038,0.15626 c -0.890623,-0.87459 -0.935576,-2.27664 -0.07299,-2.27664 0.771076,0 1.467325,1.16859 1.300532,2.18281 -0.169884,1.03302 -0.263819,1.0402 -1.227537,0.0938 z m -6.920134,-5.13793 c -0.558154,-1.33585 -0.499988,-2.33801 0.194964,-3.35911 1.04669,-1.5379 1.891013,-1.98168 3.770313,-1.98168 1.816962,0 2.62685,0.40017 3.687818,1.82218 0.612858,0.82141 0.735537,3.12071 0.195328,3.66092 -0.171199,0.1712 -0.311271,0.49157 -0.311271,0.71193 0,0.70524 0.714364,-0.25185 1.010142,-1.35336 0.885786,-3.29876 -2.422717,-6.21183 -5.970165,-5.2566 -2.882973,0.7763 -4.308443,3.99113 -2.804472,6.32486 0.568659,0.8824 0.698265,0.55793 0.227343,-0.56914 z m 1.564901,0.062 c -0.313887,-0.34684 -0.498014,-0.94378 -0.498014,-1.61457 0,-1.48136 1.222006,-2.59763 2.843692,-2.59763 1.369999,0 2.233133,0.56034 2.743064,1.78078 0.348812,0.83483 0.337318,1.01124 -0.127046,1.9498 -0.471182,0.95234 -0.475582,1.03192 -0.05705,1.03192 0.249427,0 0.591676,-0.30326 0.760556,-0.6739 1.625189,-3.56691 -3.134621,-6.52067 -5.957981,-3.69731 -0.741282,0.74128 -0.878716,1.06963 -0.878716,2.09939 0,1.41245 0.439928,2.27182 1.162985,2.27182 0.496254,0 0.496427,-0.0112 0.0085,-0.5503 z m 3.735319,-0.36371 c 0.357187,-0.35719 0.649432,-0.89838 0.649432,-1.20265 0,-0.75006 -1.15236,-1.85209 -1.936668,-1.85209 -1.785365,0 -2.674561,2.10206 -1.334943,3.1558 0.924787,0.72744 1.82851,0.69261 2.622179,-0.10106 z m -6.282919,-7.30303 c 0.462903,-0.36411 0.901031,-0.49159 1.324399,-0.38533 0.835172,0.20961 0.655807,-0.38498 -0.274352,-0.90947 -1.430429,-0.80658 -3.486217,0.35538 -2.573814,1.45476 0.426728,0.51418 0.70371,0.4851 1.523767,-0.15996 z m 11.5342,-0.0678 c 0.238483,-0.39044 0.176821,-0.57489 -0.331682,-0.99219 -0.865409,-0.71019 -1.975896,-0.64726 -2.866351,0.16244 l -0.742358,0.67503 0.816416,-0.15734 c 0.597648,-0.11517 0.987587,-0.0138 1.455208,0.3784 0.744909,0.62473 1.259141,0.60429 1.668767,-0.0663 z m -5.944895,-3.10786 c 0.01286,-1.10904 -0.115303,-1.92058 -0.355113,-2.24854 -0.4687,-0.64098 -0.664115,-0.45193 -0.978311,0.94645 -0.257145,1.14447 -0.135029,2.40393 0.379506,3.91405 l 0.298675,0.8766 0.317557,-0.8766 c 0.174656,-0.48212 0.326615,-1.6575 0.337686,-2.61196 z m -2.098013,2.59527 c -0.0053,-2.13157 -1.559253,-4.2564 -3.009627,-4.11523 -0.751573,0.0731 -0.825356,0.16312 -0.825356,1.00637 0,0.84352 0.111511,0.97932 1.251294,1.52391 0.765445,0.36572 1.410157,0.90506 1.660441,1.38906 0.484426,0.93678 0.925316,1.03032 0.923248,0.19589 z m 3.841906,-0.20612 c 0.256601,-0.49621 0.88897,-1.02631 1.66044,-1.39191 0.872984,-0.4137 1.271887,-0.7722 1.33246,-1.1975 0.180403,-1.26666 -1.095704,-1.78687 -2.305174,-0.93973 -0.770758,0.53986 -1.604251,2.33447 -1.611929,3.47067 -0.0073,1.07811 0.384122,1.10287 0.924203,0.0585 z m -3.054215,-5.67178 c 0.185301,-0.22328 0.487233,-0.40596 0.67096,-0.40596 0.504328,0 1.154736,1.1499 1.353507,2.39294 0.148738,0.93016 0.218771,1.02836 0.437821,0.61394 0.143418,-0.27133 0.589135,-0.85052 0.990483,-1.28708 0.989017,-1.0758 1.181107,-1.81815 0.616545,-2.38272 -0.488113,-0.48811 -0.480487,-0.49292 -1.328646,0.83844 -0.260242,0.40851 -0.302404,0.29717 -0.264583,-0.69869 l 0.04499,-1.18464 h -1.852083 -1.852084 l 0.05308,1.18464 0.05308,1.18463 -0.758183,-0.92172 -0.758183,-0.92173 -0.333035,0.73093 c -0.293655,0.64451 -0.264634,0.81607 0.245431,1.4509 0.318156,0.39597 0.84421,1.09955 1.169008,1.56351 l 0.590543,0.84355 0.292221,-1.29749 c 0.160722,-0.71363 0.443832,-1.48018 0.629133,-1.70345 z m -6.871632,-1.93683 c 0,-0.0832 -0.140147,-0.53892 -0.311437,-1.01261 -0.401264,-1.10968 0.02957,-1.68985 1.254872,-1.68985 1.022196,0 1.702398,0.76353 1.702398,1.91096 0,0.40418 0.119063,0.73487 0.264583,0.73487 0.363065,0 0.33375,-1.49242 -0.04322,-2.2002 -0.451126,-0.84702 -1.013332,-1.19393 -2.245227,-1.38541 -0.762096,-0.11846 -1.364581,-0.44587 -1.970132,-1.07064 -1.529466,-1.57801 -2.804707,-1.07786 -2.659798,1.04317 0.0923,1.35098 1.326608,3.03178 2.801352,3.8147 0.490492,0.26039 1.206606,0.17434 1.206606,-0.14499 z m 16.351157,0.0993 c 1.60997,-0.84109 2.69884,-2.5442 2.69884,-4.22127 0,-1.71869 -1.2656,-1.98889 -2.64583,-0.56485 -0.52134,0.53789 -1.156614,0.92604 -1.51561,0.92604 -0.908675,0 -2.37187,0.67668 -2.670747,1.23514 -0.4156,0.77655 -0.486017,2.26969 -0.113123,2.3987 0.22252,0.077 0.330729,-0.18236 0.330729,-0.79266 0,-1.17645 0.722785,-1.84833 1.866797,-1.73531 1.119531,0.11059 1.535954,0.75232 1.062391,1.63718 -0.323402,0.60428 -0.253037,1.49028 0.118356,1.49028 0.08455,0 0.475247,-0.16796 0.868197,-0.37325 z m -11.163793,-2.15181 c -0.333105,-3.25129 -2.012886,-6.77645 -4.148413,-8.70577 -1.101892,-0.99549 -2.263912,-1.23855 -2.53566,-0.53039 -0.10665,0.27793 0.522699,1.06477 1.957537,2.4474 2.374187,2.2878 3.620549,4.2533 4.060521,6.4034 0.39063,1.90897 0.456007,2.11667 0.666259,2.11667 0.09742,0 0.09731,-0.77909 -2.44e-4,-1.73131 z m 5.212067,0.16315 c 0.262938,-2.2201 1.402272,-4.15094 3.948214,-6.69109 2.385162,-2.37973 2.696612,-3.11783 1.315582,-3.11783 -0.927532,0 -3.223599,2.39302 -4.253364,4.43298 -0.933712,1.84967 -1.62028,4.33844 -1.62028,5.87343 0,1.48408 0.415282,1.14531 0.609848,-0.49749 z m -3.528434,-1.93757 c -0.01132,-3.02592 -0.413465,-5.83215 -1.038128,-7.24431 -0.463793,-1.04848 -0.616368,-1.18247 -1.261994,-1.1083 -1.061818,0.122 -1.05514,0.93176 0.03459,4.19377 0.508909,1.52338 1.006999,3.57345 1.106868,4.55572 0.152545,1.50038 0.260346,1.78593 0.674207,1.78593 0.441302,0 0.491778,-0.22743 0.48446,-2.18281 z m 2.389419,1.27407 c 0,-1.34777 0.679165,-4.331 1.455649,-6.39393 0.81532,-2.16611 0.791614,-3.1111 -0.08115,-3.23482 -0.861101,-0.12207 -1.240845,0.28775 -1.737905,1.87555 -0.425234,1.35836 -1.002591,7.67954 -0.760948,8.33121 0.06745,0.18191 0.348022,0.33073 0.623495,0.33073 0.394206,0 0.500859,-0.19351 0.500859,-0.90874 z m 5.820833,-3.2468 c 1.278778,-0.94911 1.741258,-1.46198 1.803508,-2.00003 0.2384,-2.06047 -3.34096,0.71489 -4.994156,3.87238 l -0.849106,1.62174 1.159981,-1.10883 c 0.63799,-0.60985 1.933888,-1.68322 2.879773,-2.38526 z m -11.92419,1.73913 c -0.822888,-1.613 -3.615976,-4.46275 -4.374008,-4.46275 -1.551279,0 -0.972197,1.11826 1.55386,3.00064 1.051626,0.78366 2.200251,1.73832 2.5525,2.12147 0.871486,0.94793 0.96726,0.71199 0.267648,-0.65936 z m -7.44574,20.74095 c -1.133315,-1.29903 -1.264261,-2.3612 -0.452931,-3.67396 0.481123,-0.77847 0.510976,-1.00842 0.238214,-1.83489 -0.359502,-1.08931 -0.154514,-1.54955 0.27298,-0.6129 0.158021,0.34623 0.70278,0.90145 1.210574,1.23383 0.952431,0.62342 0.993813,1.11547 0.09381,1.11547 -0.721204,0 -1.571885,0.93283 -1.571885,1.72368 0,0.45581 0.250301,0.81756 0.794783,1.14868 0.765003,0.46523 0.776526,0.49986 0.307529,0.9243 -0.455303,0.41204 -0.513865,0.41045 -0.893076,-0.0242 z m 22.682468,-0.0625 c -0.45662,-0.50456 -0.45007,-0.52983 0.20178,-0.77766 0.37055,-0.14089 0.75333,-0.50693 0.85061,-0.81344 0.19483,-0.61385 -0.4447,-1.8063 -1.07305,-2.00079 -1.35589,-0.41969 -1.35115,-0.38273 -0.17893,-1.3937 0.62072,-0.53533 1.12674,-1.12216 1.12448,-1.30406 -0.002,-0.1819 0.12771,-0.33073 0.2888,-0.33073 0.17079,0 0.21821,0.19302 0.11376,0.46302 -0.47774,1.2349 -0.45391,1.90698 0.0923,2.60131 0.65319,0.83039 0.71047,1.69694 0.18,2.72277 -0.62815,1.2147 -1.05384,1.43644 -1.5997,0.83328 z M 80.294353,118.21647 c -0.188581,-0.49143 0.329972,-3.73252 0.711126,-4.44471 0.141857,-0.26506 0.439078,-0.48193 0.660491,-0.48193 0.357577,0 0.356537,0.0657 -0.0093,0.58804 -0.272616,0.38921 -0.411878,1.18339 -0.411878,2.34885 0,1.23617 -0.117319,1.85818 -0.393744,2.08759 -0.318774,0.26456 -0.424769,0.24593 -0.556686,-0.0978 z m 22.700917,0.0493 c -0.1765,-0.1765 -0.31924,-1.01127 -0.31924,-1.86696 0,-0.86984 -0.1768,-1.88962 -0.40367,-2.32833 -0.36319,-0.70235 -0.36254,-0.78061 0.006,-0.78061 0.51249,0 0.90869,0.99691 1.20182,3.02398 0.24839,1.71769 0.0556,2.49295 -0.48546,1.95192 z M 85.304834,112.617 c -0.205642,-0.5359 -0.08934,-0.62575 0.958348,-0.74045 0.652112,-0.0714 0.980227,-0.29417 1.270757,-0.86282 0.649997,-1.27221 1.155516,-1.69319 2.02008,-1.68226 l 0.818889,0.0104 -0.849115,0.36921 c -0.563879,0.24519 -0.989444,0.70507 -1.266861,1.36903 -0.229761,0.54989 -0.610254,1.21252 -0.845539,1.47251 -0.528669,0.58417 -1.891122,0.62584 -2.106559,0.0644 z m 11.225324,-0.0547 c -0.22388,-0.25466 -0.655869,-0.95805 -0.959974,-1.56309 -0.344757,-0.68592 -0.829512,-1.20101 -1.287598,-1.36817 l -0.734678,-0.26811 0.727604,-0.0209 c 0.807567,-0.0232 1.541917,0.59184 2.180009,1.82577 0.232218,0.44906 0.526215,0.7522 0.653327,0.67364 0.127112,-0.0786 0.551701,-0.0209 0.943531,0.12802 0.591183,0.22477 0.656986,0.33766 0.386681,0.66335 -0.440881,0.53123 -1.411402,0.49537 -1.908902,-0.0705 z"
       id="path1" /></g></svg>
